<svg id="Layer_1" data-name="Layer 1" xmlns="http://www.w3.org/2000/svg" viewBox="0 0 1885.88 1885.85"><path d="M902,3.1C838.8,6.2,782.1,15.2,704.5,34.7,580.2,65.8,473,118.9,363.5,203.4A898.62,898.62,0,0,0,203.4,363.5c-58.2,75.4-99.6,146.3-131.2,225-20.4,51-33.2,93.9-48.6,163-28.9,130-28.7,258.9.5,389.5,15.2,67.7,28,110.2,48.1,160.5,31.6,78.7,73,149.6,131.2,225a901.93,901.93,0,0,0,160.1,160.1c109.4,84.5,216.7,137.6,341,168.7C797,1878.5,867,1888,945,1888s148-9.5,240.5-32.7c124.3-31.1,231.6-84.2,341-168.7a901.93,901.93,0,0,0,160.1-160.1c58.2-75.4,99.6-146.3,131.2-225,20.1-50.3,32.9-92.8,48.1-160.5,29.2-130.6,29.4-259.5.5-389.5-15.4-69.1-28.2-112-48.6-163-31.6-78.7-73-149.6-131.2-225a898.62,898.62,0,0,0-160.1-160.1c-85.9-66.3-167.6-111.7-261-144.8-58-20.7-146-41.5-209-49.5A928.49,928.49,0,0,0,902,3.1Zm510.5,618.3c11.5,3.6,21.2,15.4,23.6,28.7a35.46,35.46,0,0,1-14.9,35.7c-11.8,8-32.8,19-39.2,20.7-20.8,5.4-41.2-7.9-45.1-29.6a35.46,35.46,0,0,1,14.9-35.7c10.8-7.3,31.7-18.6,37.7-20.4A41.11,41.11,0,0,1,1412.5,621.4Zm-912.1,1.2c6,1.5,27.1,12.7,38.9,20.6,12.8,8.7,18.3,25.1,13.7,40.9-1.7,6.1-8.5,15.4-13.6,19s-15.6,6.9-21.2,6.9c-7,0-16-3.3-29.2-10.7-25.4-14.3-30.1-18.8-33.5-32.3-2.7-10.5-1-19.8,5.4-29.7a33.68,33.68,0,0,1,19.6-14.4C488.1,620.7,492.7,620.6,500.4,622.6Zm453.9,79.8c9.9,2.4,18.9,9.2,23.3,17.8,4.1,7.9,4.3,12,4.4,72.5,0,32.1.2,58.3.6,58.3s52.6-30.1,116.3-66.9c92-53.2,117.1-67.3,122.2-68.6,20.7-5.4,41.1,8,45,29.6,1.1,6.1,1,8-.5,14.4-1.9,8.2-5.9,14.9-11.5,19.5-2,1.7-55.5,33-118.8,69.7S1020,915.6,1020,915.9s22.4,13.5,49.8,29.3,51.3,30.1,53.3,31.8c5.6,4.6,9.6,11.3,11.5,19.5,1.5,6.4,1.6,8.3.5,14.4-3.9,21.6-23.9,34.9-44.8,29.7-5.5-1.4-16.1-7.1-57.3-31l-50.5-29.2-.5,136.5c-.4,102.3-.8,137.4-1.7,139.9-6.3,17.7-23.9,27.8-42,24.2a46.42,46.42,0,0,1-10.6-3.2c-8.1-4-15.4-12.9-18-21.6-.8-2.6-1.3-44.9-1.7-139.8l-.5-136L857,1009.6c-41.2,23.9-51.8,29.6-57.3,31-20.9,5.2-40.9-8.1-44.8-29.7-1.1-6.1-1-8,.5-14.4,1.9-8.2,5.9-14.9,11.5-19.5,2-1.7,26-16,53.3-31.8s49.7-29,49.5-29.4S818,885.3,755,848.9s-116.4-67.7-118.6-69.5c-6-4.9-10-11.5-12-19.9-1.5-6.4-1.6-8.3-.5-14.4,3.9-21.6,24.3-35,45-29.6,5.1,1.3,30.2,15.4,122.2,68.6,63.7,36.8,116,66.9,116.3,66.9s.6-26.2.6-58.3c.1-45.9.4-59.4,1.4-64C914.2,708.8,933.5,697.5,954.3,702.4Zm0,671c13.8,3.3,23.6,13.5,26.6,27.4,1.6,7.5,1.4,40.3-.3,47.3-4.4,19-23,30.7-42.3,26.9-8.2-1.5-13-3.9-18.4-8.7a34.89,34.89,0,0,1-10.5-18.2c-1.7-7-1.9-39.8-.3-47.3C913.5,1380.3,933.1,1368.4,954.3,1373.4Z" transform="translate(-2.06 -2.15)"/></svg>