<?xml version="1.0" encoding="utf-8"?>
<!-- Generator: Adobe Illustrator 25.3.0, SVG Export Plug-In . SVG Version: 6.00 Build 0)  -->
<svg version="1.1" id="Layer_1" xmlns="http://www.w3.org/2000/svg" xmlns:xlink="http://www.w3.org/1999/xlink" x="0px" y="0px"
	 viewBox="0 0 1890 1890" style="enable-background:new 0 0 1890 1890;" xml:space="preserve">
<path d="M902,3.1c-63.2,3.1-119.9,12.1-197.5,31.6c-124.3,31.1-231.5,84.2-341,168.7c-59.3,45.8-114.3,100.8-160.1,160.1
	c-58.2,75.4-99.6,146.3-131.2,225c-20.4,51-33.2,93.9-48.6,163c-28.9,130-28.7,258.9,0.5,389.5c15.2,67.7,28,110.2,48.1,160.5
	c31.6,78.7,73,149.6,131.2,225c45.8,59.3,100.8,114.2,160.1,160.1c109.4,84.5,216.7,137.6,341,168.7C797,1878.5,867,1888,945,1888
	s148-9.5,240.5-32.7c124.3-31.1,231.6-84.2,341-168.7c59.3-45.9,114.3-100.8,160.1-160.1c58.2-75.4,99.6-146.3,131.2-225
	c20.1-50.3,32.9-92.8,48.1-160.5c29.2-130.6,29.4-259.5,0.5-389.5c-15.4-69.1-28.2-112-48.6-163c-31.6-78.7-73-149.6-131.2-225
	c-45.8-59.3-100.8-114.3-160.1-160.1c-85.9-66.3-167.6-111.7-261-144.8c-58-20.7-146-41.5-209-49.5C1007,2.9,951.6,0.7,902,3.1z
	 M1412.5,621.4c11.5,3.6,21.2,15.4,23.6,28.7c2.5,13.9-3.4,28-14.9,35.7c-11.8,8-32.8,19-39.2,20.7c-20.8,5.4-41.2-7.9-45.1-29.6
	c-2.5-13.9,3.4-28,14.9-35.7c10.8-7.3,31.7-18.6,37.7-20.4C1396.4,618.8,1404.7,619,1412.5,621.4z M500.4,622.6
	c6,1.5,27.1,12.7,38.9,20.6c12.8,8.7,18.3,25.1,13.7,40.9c-1.7,6.1-8.5,15.4-13.6,19c-5.1,3.5-15.6,6.9-21.2,6.9
	c-7,0-16-3.3-29.2-10.7c-25.4-14.3-30.1-18.8-33.5-32.3c-2.7-10.5-1-19.8,5.4-29.7c4.7-7.2,11.2-12,19.6-14.4
	C488.1,620.7,492.7,620.6,500.4,622.6z M954.3,702.4c9.9,2.4,18.9,9.2,23.3,17.8c4.1,7.9,4.3,12,4.4,72.5c0,32.1,0.2,58.3,0.6,58.3
	c0.3,0,52.6-30.1,116.3-66.9c92-53.2,117.1-67.3,122.2-68.6c20.7-5.4,41.1,8,45,29.6c1.1,6.1,1,8-0.5,14.4
	c-1.9,8.2-5.9,14.9-11.5,19.5c-2,1.7-55.5,33-118.8,69.7c-63.4,36.6-115.3,66.9-115.3,67.2c0,0.3,22.4,13.5,49.8,29.3
	c27.3,15.8,51.3,30.1,53.3,31.8c5.6,4.6,9.6,11.3,11.5,19.5c1.5,6.4,1.6,8.3,0.5,14.4c-3.9,21.6-23.9,34.9-44.8,29.7
	c-5.5-1.4-16.1-7.1-57.3-31l-50.5-29.2l-0.5,136.5c-0.4,102.3-0.8,137.4-1.7,139.9c-6.3,17.7-23.9,27.8-42,24.2
	c-3.8-0.7-8.5-2.1-10.6-3.2c-8.1-4-15.4-12.9-18-21.6c-0.8-2.6-1.3-44.9-1.7-139.8l-0.5-136l-50.5,29.2
	c-41.2,23.9-51.8,29.6-57.3,31c-20.9,5.2-40.9-8.1-44.8-29.7c-1.1-6.1-1-8,0.5-14.4c1.9-8.2,5.9-14.9,11.5-19.5
	c2-1.7,26-16,53.3-31.8c27.4-15.8,49.7-29,49.5-29.4c-0.1-0.4-51.7-30.5-114.7-66.9c-63-36.4-116.4-67.7-118.6-69.5
	c-6-4.9-10-11.5-12-19.9c-1.5-6.4-1.6-8.3-0.5-14.4c3.9-21.6,24.3-35,45-29.6c5.1,1.3,30.2,15.4,122.2,68.6
	c63.7,36.8,116,66.9,116.3,66.9c0.4,0,0.6-26.2,0.6-58.3c0.1-45.9,0.4-59.4,1.4-64C914.2,708.8,933.5,697.5,954.3,702.4z
	 M954.3,1373.4c13.8,3.3,23.6,13.5,26.6,27.4c1.6,7.5,1.4,40.3-0.3,47.3c-4.4,19-23,30.7-42.3,26.9c-8.2-1.5-13-3.9-18.4-8.7
	c-5.2-4.7-8.9-11.1-10.5-18.2c-1.7-7-1.9-39.8-0.3-47.3C913.5,1380.3,933.1,1368.4,954.3,1373.4z"/>
</svg>
