<?xml version="1.0" standalone="no"?>
<!DOCTYPE svg PUBLIC "-//W3C//DTD SVG 20010904//EN"
 "http://www.w3.org/TR/2001/REC-SVG-20010904/DTD/svg10.dtd">
<svg version="1.0" xmlns="http://www.w3.org/2000/svg"
 width="1890.000000pt" height="1890.000000pt" viewBox="0 0 1890.000000 1890.000000"
 preserveAspectRatio="xMidYMid meet">
<metadata>
Created by potrace 1.14, written by Peter Selinger 2001-2017
</metadata>
<g transform="translate(0.000000,1890.000000) scale(0.100000,-0.100000)"
fill="#000000" stroke="none">
<path d="M9020 18869 c-632 -31 -1199 -121 -1975 -316 -1243 -311 -2315 -842
-3410 -1687 -593 -458 -1143 -1008 -1601 -1601 -582 -754 -996 -1463 -1312
-2250 -204 -510 -332 -939 -486 -1630 -289 -1300 -287 -2589 5 -3895 152 -677
280 -1102 481 -1605 316 -787 730 -1496 1312 -2250 458 -593 1008 -1142 1601
-1601 1094 -845 2167 -1376 3410 -1687 925 -232 1625 -327 2405 -327 780 0
1480 95 2405 327 1243 311 2316 842 3410 1687 593 459 1143 1008 1601 1601
582 754 996 1463 1312 2250 201 503 329 928 481 1605 292 1306 294 2595 5
3895 -154 691 -282 1120 -486 1630 -316 787 -730 1496 -1312 2250 -458 593
-1008 1143 -1601 1601 -859 663 -1676 1117 -2610 1448 -580 207 -1460 415
-2090 495 -495 62 -1049 84 -1545 60z m5105 -6183 c115 -36 212 -154 236 -287
25 -139 -34 -280 -149 -357 -118 -80 -328 -190 -392 -207 -208 -54 -412 79
-451 296 -25 139 34 280 149 357 108 73 317 186 377 204 69 20 152 18 230 -6z
m-9121 -12 c60 -15 271 -127 389 -206 128 -87 183 -251 137 -409 -17 -61 -85
-154 -136 -190 -51 -35 -156 -69 -212 -69 -70 0 -160 33 -292 107 -254 143
-301 188 -335 323 -27 105 -10 198 54 297 47 72 112 120 196 144 76 22 122 23
199 3z m4539 -798 c99 -24 189 -92 233 -178 41 -79 43 -120 44 -725 0 -321 2
-583 6 -583 3 0 526 301 1163 669 920 532 1171 673 1222 686 207 54 411 -80
450 -296 11 -61 10 -80 -5 -144 -19 -82 -59 -149 -115 -195 -20 -17 -555 -330
-1188 -697 -634 -366 -1153 -669 -1153 -672 0 -3 224 -135 498 -293 273 -158
513 -301 533 -318 56 -46 96 -113 115 -195 15 -64 16 -83 5 -144 -39 -216
-239 -349 -448 -297 -55 14 -161 71 -573 310 l-505 292 -5 -1365 c-4 -1023 -8
-1374 -17 -1399 -63 -177 -239 -278 -420 -242 -38 7 -85 21 -106 32 -81 40
-154 129 -180 216 -8 26 -13 449 -17 1398 l-5 1360 -505 -292 c-412 -239 -518
-296 -573 -310 -209 -52 -409 81 -448 297 -11 61 -10 80 5 144 19 82 59 149
115 195 20 17 260 160 533 318 274 158 497 290 495 294 -1 4 -517 305 -1147
669 -630 364 -1164 677 -1186 695 -60 49 -100 115 -120 199 -15 64 -16 83 -5
144 39 216 243 350 450 296 51 -13 302 -154 1222 -686 637 -368 1160 -669
1163 -669 4 0 6 262 6 583 1 459 4 594 14 640 48 199 241 312 449 263z m0
-6710 c138 -33 236 -135 266 -274 16 -75 14 -403 -3 -473 -44 -190 -230 -307
-423 -269 -82 15 -130 39 -184 87 -52 47 -89 111 -105 182 -17 70 -19 398 -3
473 44 205 240 324 452 274z"/>
</g>
</svg>
